<svg xmlns="http://www.w3.org/2000/svg" width="24" height="24" fill="none" viewBox="0 0 24 24">
  <path fill="#1C1D1F" d="M6.822 4.921c-.027-1.221-.93-2.152-2.397-2.152C2.96 2.77 2 3.7 2 4.921c0 1.196.93 2.153 2.37 2.153h.027c1.495 0 2.425-.957 2.425-2.153Zm-.285 3.853H2.25V21.23h4.287V8.774Zm10.527-.292c2.821 0 4.936 1.78 4.936 5.606v7.142h-4.287v-6.664c0-1.674-.62-2.816-2.172-2.816-1.184 0-1.89.77-2.2 1.514-.112.267-.14.638-.14 1.01v6.957H8.913s.057-11.288 0-12.456h4.288v1.764c.569-.848 1.588-2.057 3.863-2.057Z"/>
</svg>
